<svg width="16" height="17" viewBox="0 0 16 17" fill="none" xmlns="http://www.w3.org/2000/svg">
<path d="M3.5 4.40021L4.125 14.4002C4.15469 14.978 4.575 15.4002 5.125 15.4002H10.875C11.4272 15.4002 11.8397 14.978 11.875 14.4002L12.5 4.40021" stroke="black" stroke-linecap="round" stroke-linejoin="round"/>
<path d="M2.5 4.40021H13.5H2.5Z" fill="black"/>
<path d="M2.5 4.40021H13.5" stroke="black" stroke-miterlimit="10" stroke-linecap="round"/>
<path d="M10.25 6.40021L10 13.4002M6 4.40021V3.15021C5.99971 3.05164 6.01891 2.95398 6.0565 2.86286C6.09409 2.77173 6.14932 2.68894 6.21903 2.61924C6.28873 2.54953 6.37152 2.4943 6.46265 2.45671C6.55377 2.41912 6.65143 2.39992 6.75 2.40021H9.25C9.34857 2.39992 9.44623 2.41912 9.53735 2.45671C9.62848 2.4943 9.71127 2.54953 9.78097 2.61924C9.85068 2.68894 9.90591 2.77173 9.9435 2.86286C9.98109 2.95398 10.0003 3.05164 10 3.15021V4.40021H6ZM8 6.40021V13.4002V6.40021ZM5.75 6.40021L6 13.4002L5.75 6.40021Z" stroke="black" stroke-linecap="round" stroke-linejoin="round"/>
</svg>
