<svg width="66" height="29" viewBox="0 0 66 29" fill="none" xmlns="http://www.w3.org/2000/svg">
<path d="M30.4678 25.4883L16.9092 28.8652L20.4131 25.209C19.973 24.1764 19.5244 23.1439 19.0674 22.1113C18.6273 21.0788 18.1702 20.0462 17.6963 19.0137C16.4775 19.0983 15.2588 19.1491 14.04 19.166C12.8382 19.166 11.6279 19.2083 10.4092 19.293C10.1722 19.7331 9.93522 20.1732 9.69824 20.6133C9.47819 21.0365 9.24967 21.4681 9.0127 21.9082L13.6338 24.9297L0.608398 24.0664L6.85449 21.4258L13.3291 9.06055L6.49902 5.58203L16.249 5.98828L25.0342 23.8887L30.4678 25.4883ZM16.7822 16.8047C16.3929 15.9583 15.9951 15.1204 15.5889 14.291C15.1826 13.4616 14.7848 12.6237 14.3955 11.7773C13.9554 12.5898 13.5153 13.3939 13.0752 14.1895C12.652 14.9681 12.2204 15.7637 11.7803 16.5762L16.7822 16.8047ZM44.7373 24.8027L34.0986 24.498L37.7041 22.543V17.8965C37.7041 16.847 37.4333 16.0345 36.8916 15.459C36.3499 14.8835 35.5544 14.5957 34.5049 14.5957C34.0648 14.5957 33.5654 14.6465 33.0068 14.748C32.4652 14.8327 31.9997 14.9766 31.6104 15.1797C31.5596 16.1445 31.5088 17.1094 31.458 18.0742C31.4242 19.0221 31.3903 19.9785 31.3564 20.9434L34.5811 22.873L23.9424 23.3047L28.0303 21.0449L27.3701 3.98242L21.124 2.33203L32.2451 0.681641L31.7119 12.8691C32.1351 12.7337 32.5667 12.6406 33.0068 12.5898C33.4469 12.5391 33.887 12.5137 34.3271 12.5137H34.4287C35.1566 12.5137 35.9437 12.5898 36.79 12.7422C37.6364 12.8776 38.415 13.123 39.126 13.4785C39.8538 13.8171 40.4548 14.291 40.9287 14.9004C41.4027 15.4928 41.6396 16.2461 41.6396 17.1602C41.6396 17.4818 41.6058 17.8796 41.5381 18.3535C41.4873 18.8275 41.4196 19.3184 41.335 19.8262C41.2503 20.334 41.1572 20.8249 41.0557 21.2988C40.9541 21.7559 40.8695 22.1367 40.8018 22.4414L44.7373 24.8027ZM59.083 23.2539L51.0342 23.584L51.2119 22.1621C50.6702 22.2298 50.1286 22.2721 49.5869 22.2891C49.0452 22.2891 48.5036 22.2891 47.9619 22.2891C47.471 22.2891 46.9294 22.2298 46.3369 22.1113C45.7445 21.9928 45.1943 21.8066 44.6865 21.5527C44.1787 21.2819 43.7555 20.9349 43.417 20.5117C43.0785 20.0885 42.9092 19.5723 42.9092 18.9629C42.9092 18.2858 43.07 17.7103 43.3916 17.2363C43.7132 16.7624 44.1195 16.3815 44.6104 16.0938C45.1182 15.806 45.6768 15.5944 46.2861 15.459C46.8955 15.3236 47.488 15.2559 48.0635 15.2559C48.7744 15.2559 49.4684 15.2897 50.1455 15.3574C50.8226 15.4251 51.5081 15.4844 52.2021 15.5352C52.236 15.3151 52.2614 15.0951 52.2783 14.875C52.2952 14.638 52.3037 14.401 52.3037 14.1641C52.3037 13.707 52.2614 13.2585 52.1768 12.8184C52.109 12.3783 51.9736 11.9889 51.7705 11.6504C51.5843 11.2949 51.3135 11.0156 50.958 10.8125C50.6195 10.6094 50.1794 10.5078 49.6377 10.5078C49.1299 10.5078 48.6644 10.5924 48.2412 10.7617C47.835 10.9141 47.471 11.1849 47.1494 11.5742C47.3864 11.7604 47.5472 11.972 47.6318 12.209C47.7165 12.429 47.7588 12.6829 47.7588 12.9707V13.123C47.5049 14.3079 46.7601 14.9004 45.5244 14.9004C44.9658 14.9004 44.5088 14.7057 44.1533 14.3164C43.7979 13.9102 43.6201 13.4362 43.6201 12.8945C43.6201 12.1497 43.8317 11.5065 44.2549 10.9648C44.6781 10.4232 45.1943 9.97461 45.8037 9.61914C46.43 9.26367 47.0986 9.0013 47.8096 8.83203C48.5374 8.66276 49.2061 8.57812 49.8154 8.57812C51.762 8.57812 53.277 9.02669 54.3604 9.92383C55.4606 10.821 56.0107 12.2852 56.0107 14.3164C56.0107 14.5365 56.0023 14.7565 55.9854 14.9766C55.9854 15.1966 55.9769 15.4167 55.96 15.6367L55.3506 21.4766C55.9938 21.7643 56.6201 22.0605 57.2295 22.3652C57.8389 22.6699 58.4567 22.9661 59.083 23.2539ZM51.9229 17.2363C51.4827 17.1855 51.0426 17.1348 50.6025 17.084C50.1624 17.0163 49.7223 16.9824 49.2822 16.9824C48.9945 16.9824 48.7067 17.0163 48.4189 17.084C48.1481 17.1348 47.8942 17.2279 47.6572 17.3633C47.4372 17.4987 47.2594 17.6849 47.124 17.9219C46.9886 18.1419 46.9209 18.4212 46.9209 18.7598C46.9209 19.0137 46.9801 19.2422 47.0986 19.4453C47.2171 19.6315 47.3695 19.7923 47.5557 19.9277C47.7588 20.0632 47.9704 20.1647 48.1904 20.2324C48.4274 20.3001 48.6559 20.334 48.876 20.334C49.3161 20.334 49.7562 20.3086 50.1963 20.2578C50.6533 20.207 51.0934 20.1562 51.5166 20.1055L51.9229 17.2363ZM65.2275 1.44336L62.1299 18.3281L59.1084 17.9727L59.7939 1.03711L65.2275 1.44336ZM62.5361 21.4512C62.5361 21.7559 62.46 22.0267 62.3076 22.2637C62.1722 22.4837 61.9945 22.6699 61.7744 22.8223C61.5544 22.9746 61.3005 23.0846 61.0127 23.1523C60.7249 23.2201 60.4456 23.2539 60.1748 23.2539C59.904 23.2539 59.6077 23.2116 59.2861 23.127C58.9814 23.0592 58.6937 22.9408 58.4229 22.7715C58.1689 22.6022 57.9574 22.3991 57.7881 22.1621C57.6188 21.9251 57.5342 21.6374 57.5342 21.2988C57.5342 20.9434 57.6188 20.6387 57.7881 20.3848C57.9574 20.1309 58.1689 19.9277 58.4229 19.7754C58.6937 19.6061 58.9899 19.4876 59.3115 19.4199C59.6331 19.3353 59.9463 19.293 60.251 19.293C60.5387 19.293 60.818 19.3522 61.0889 19.4707C61.3766 19.5723 61.6221 19.7161 61.8252 19.9023C62.0452 20.0885 62.2145 20.3171 62.333 20.5879C62.4684 20.8587 62.5361 21.1465 62.5361 21.4512Z" fill="white"/>
</svg>
